<svg xmlns="http://www.w3.org/2000/svg" xmlns:xlink="http://www.w3.org/1999/xlink" contentStyleType="text/css" data-diagram-type="DESCRIPTION" height="738px" preserveAspectRatio="none" style="width:2899px;height:738px;background:#FFFFFF;" version="1.1" viewBox="0 0 2899 738" width="2899px" zoomAndPan="magnify"><?plantuml 1.2026.6?><defs/><g><g class="title" data-source-line="1"><text fill="#1F2937" font-family="sans-serif" font-size="14" font-weight="700" lengthAdjust="spacing" textLength="462.8955" x="1214.8022" y="24.5332">System Architecture Diagram - Edge to Cloud Predictive Maintenance</text></g><!--cluster 1. Machine Layer--><g class="cluster" data-qualified-name="1. Machine Layer" data-source-line="28" id="ent0002"><path d="M141.5,137.6094 L255.3271,137.6094 A3.75,3.75 0 0 1 257.8271,140.1094 L264.8271,161.2188 L275.5,161.2188 A2.5,2.5 0 0 1 278,163.7188 L278,401.1094 A2.5,2.5 0 0 1 275.5,403.6094 L141.5,403.6094 A2.5,2.5 0 0 1 139,401.1094 L139,140.1094 A2.5,2.5 0 0 1 141.5,137.6094" fill="#F9FAFB" style="stroke:#374151;stroke-width:1.5;"/><line style="stroke:#374151;stroke-width:1.5;" x1="139" x2="264.8271" y1="161.2188" y2="161.2188"/><text fill="#1F2937" font-family="sans-serif" font-size="14" font-weight="700" lengthAdjust="spacing" textLength="112.8271" x="143" y="154.1426">1. Machine Layer</text></g><!--cluster 2. Sensor + Edge Layer--><g class="cluster" data-qualified-name="2. Sensor . Edge Layer" data-source-line="34" id="ent0006"><path d="M541,44.6094 L696.458,44.6094 A3.75,3.75 0 0 1 698.958,47.1094 L705.958,68.2188 L1914,68.2188 A2.5,2.5 0 0 1 1916.5,70.7188 L1916.5,278.1094 A2.5,2.5 0 0 1 1914,280.6094 L541,280.6094 A2.5,2.5 0 0 1 538.5,278.1094 L538.5,47.1094 A2.5,2.5 0 0 1 541,44.6094" fill="#F9FAFB" style="stroke:#374151;stroke-width:1.5;"/><line style="stroke:#374151;stroke-width:1.5;" x1="538.5" x2="705.958" y1="68.2188" y2="68.2188"/><text fill="#1F2937" font-family="sans-serif" font-size="14" font-weight="700" lengthAdjust="spacing" textLength="154.458" x="542.5" y="61.1426">2. Sensor + Edge Layer</text></g><!--cluster ESP32--><g class="cluster" data-qualified-name="2. Sensor . Edge Layer.ESP32" data-source-line="37" id="ent0009"><polygon fill="#EFF6FF" points="836,106.6094,846,96.6094,1884.5,96.6094,1884.5,238.6094,1874.5,248.6094,836,248.6094,836,106.6094" style="stroke:#2563EB;stroke-width:1;stroke-linejoin:miter;stroke-miterlimit:10;"/><line style="stroke:#2563EB;stroke-width:1;" x1="1874.5" x2="1884.5" y1="106.6094" y2="96.6094"/><line style="stroke:#2563EB;stroke-width:1;" x1="836" x2="1874.5" y1="106.6094" y2="106.6094"/><line style="stroke:#2563EB;stroke-width:1;" x1="1874.5" x2="1874.5" y1="106.6094" y2="248.6094"/><text fill="#1F2937" font-family="sans-serif" font-size="14" font-weight="700" lengthAdjust="spacing" textLength="133.8271" x="1289.3364" y="124.1426">ESP32 Sensor Node</text><text fill="#1F2937" font-family="sans-serif" font-size="14" font-weight="700" lengthAdjust="spacing" textLength="82.4756" x="1315.0122" y="141.752">per machine</text></g><!--cluster 3. Communication Layer--><g class="cluster" data-qualified-name="3. Communication Layer" data-source-line="45" id="ent0014"><path d="M2090,145.6094 L2253.5928,145.6094 A3.75,3.75 0 0 1 2256.0928,148.1094 L2263.0928,169.2188 L2590,169.2188 A2.5,2.5 0 0 1 2592.5,171.7188 L2592.5,306.1094 A2.5,2.5 0 0 1 2590,308.6094 L2090,308.6094 A2.5,2.5 0 0 1 2087.5,306.1094 L2087.5,148.1094 A2.5,2.5 0 0 1 2090,145.6094" fill="#F9FAFB" style="stroke:#374151;stroke-width:1.5;"/><line style="stroke:#374151;stroke-width:1.5;" x1="2087.5" x2="2263.0928" y1="169.2188" y2="169.2188"/><text fill="#1F2937" font-family="sans-serif" font-size="14" font-weight="700" lengthAdjust="spacing" textLength="162.5928" x="2091.5" y="162.1426">3. Communication Layer</text></g><!--cluster 4. Cloud / Processing Layer--><g class="cluster" data-qualified-name="4. Cloud . Processing Layer" data-source-line="50" id="ent0017"><path d="M843,344.6094 L1027.6133,344.6094 A3.75,3.75 0 0 1 1030.1133,347.1094 L1037.1133,368.2188 L2225.5,368.2188 A2.5,2.5 0 0 1 2228,370.7188 L2228,450.1094 A2.5,2.5 0 0 1 2225.5,452.6094 L843,452.6094 A2.5,2.5 0 0 1 840.5,450.1094 L840.5,347.1094 A2.5,2.5 0 0 1 843,344.6094" fill="#F9FAFB" style="stroke:#374151;stroke-width:1.5;"/><line style="stroke:#374151;stroke-width:1.5;" x1="840.5" x2="1037.1133" y1="368.2188" y2="368.2188"/><text fill="#1F2937" font-family="sans-serif" font-size="14" font-weight="700" lengthAdjust="spacing" textLength="183.6133" x="844.5" y="361.1426">4. Cloud / Processing Layer</text></g><!--cluster 5. Storage + Application Layer--><g class="cluster" data-qualified-name="5. Storage . Application Layer" data-source-line="58" id="ent0023"><path d="M2428,346.6094 L2630.1133,346.6094 A3.75,3.75 0 0 1 2632.6133,349.1094 L2639.6133,370.2188 L2882,370.2188 A2.5,2.5 0 0 1 2884.5,372.7188 L2884.5,543.1094 A2.5,2.5 0 0 1 2882,545.6094 L2428,545.6094 A2.5,2.5 0 0 1 2425.5,543.1094 L2425.5,349.1094 A2.5,2.5 0 0 1 2428,346.6094" fill="#F9FAFB" style="stroke:#374151;stroke-width:1.5;"/><line style="stroke:#374151;stroke-width:1.5;" x1="2425.5" x2="2639.6133" y1="370.2188" y2="370.2188"/><text fill="#1F2937" font-family="sans-serif" font-size="14" font-weight="700" lengthAdjust="spacing" textLength="201.1133" x="2429.5" y="363.1426">5. Storage + Application Layer</text></g><!--entity MachineA--><g class="entity" data-qualified-name="1. Machine Layer.MachineA" data-source-line="29" id="ent0003"><polygon fill="#EFF6FF" points="155.5,183.6094,165.5,173.6094,261.6445,173.6094,261.6445,211.2188,251.6445,221.2188,155.5,221.2188,155.5,183.6094" style="stroke:#2563EB;stroke-width:0.5;stroke-linejoin:miter;stroke-miterlimit:10;"/><line style="stroke:#2563EB;stroke-width:0.5;" x1="251.6445" x2="261.6445" y1="183.6094" y2="173.6094"/><line style="stroke:#2563EB;stroke-width:0.5;" x1="155.5" x2="251.6445" y1="183.6094" y2="183.6094"/><line style="stroke:#2563EB;stroke-width:0.5;" x1="251.6445" x2="251.6445" y1="183.6094" y2="221.2188"/><text fill="#1F2937" font-family="sans-serif" font-size="14" lengthAdjust="spacing" textLength="66.1445" x="170.5" y="208.1426">Machine A</text></g><!--entity MachineB--><g class="entity" data-qualified-name="1. Machine Layer.MachineB" data-source-line="30" id="ent0004"><polygon fill="#EFF6FF" points="155.5,266.6094,165.5,256.6094,261.6445,256.6094,261.6445,294.2188,251.6445,304.2188,155.5,304.2188,155.5,266.6094" style="stroke:#2563EB;stroke-width:0.5;stroke-linejoin:miter;stroke-miterlimit:10;"/><line style="stroke:#2563EB;stroke-width:0.5;" x1="251.6445" x2="261.6445" y1="266.6094" y2="256.6094"/><line style="stroke:#2563EB;stroke-width:0.5;" x1="155.5" x2="251.6445" y1="266.6094" y2="266.6094"/><line style="stroke:#2563EB;stroke-width:0.5;" x1="251.6445" x2="251.6445" y1="266.6094" y2="304.2188"/><text fill="#1F2937" font-family="sans-serif" font-size="14" lengthAdjust="spacing" textLength="66.1445" x="170.5" y="291.1426">Machine B</text></g><!--entity MachineC--><g class="entity" data-qualified-name="1. Machine Layer.MachineC" data-source-line="31" id="ent0005"><polygon fill="#EFF6FF" points="155,349.6094,165,339.6094,261.917,339.6094,261.917,377.2188,251.917,387.2188,155,387.2188,155,349.6094" style="stroke:#2563EB;stroke-width:0.5;stroke-linejoin:miter;stroke-miterlimit:10;"/><line style="stroke:#2563EB;stroke-width:0.5;" x1="251.917" x2="261.917" y1="349.6094" y2="339.6094"/><line style="stroke:#2563EB;stroke-width:0.5;" x1="155" x2="251.917" y1="349.6094" y2="349.6094"/><line style="stroke:#2563EB;stroke-width:0.5;" x1="251.917" x2="251.917" y1="349.6094" y2="387.2188"/><text fill="#1F2937" font-family="sans-serif" font-size="14" lengthAdjust="spacing" textLength="66.917" x="170" y="374.1426">Machine C</text></g><!--entity Temp--><g class="entity" data-qualified-name="2. Sensor . Edge Layer.Temp" data-source-line="35" id="ent0007"><rect fill="#FFFFFF" height="55.2188" rx="2.5" ry="2.5" style="stroke:#374151;stroke-width:0.5;" width="100.1445" x="554.5" y="81.1094"/><text fill="#1F2937" font-family="sans-serif" font-size="14" lengthAdjust="spacing" textLength="80.1445" x="564.5" y="105.6426">Temperature</text><text fill="#1F2937" font-family="sans-serif" font-size="14" lengthAdjust="spacing" textLength="44.3584" x="564.5" y="123.252">Sensor</text></g><!--entity Vib--><g class="entity" data-qualified-name="2. Sensor . Edge Layer.Vib" data-source-line="36" id="ent0008"><rect fill="#FFFFFF" height="55.2188" rx="2.5" ry="2.5" style="stroke:#374151;stroke-width:0.5;" width="75.2549" x="567" y="171.1094"/><text fill="#1F2937" font-family="sans-serif" font-size="14" lengthAdjust="spacing" textLength="55.2549" x="577" y="195.6426">Vibration</text><text fill="#1F2937" font-family="sans-serif" font-size="14" lengthAdjust="spacing" textLength="44.3584" x="577" y="213.252">Sensor</text></g><!--entity Read--><g class="entity" data-qualified-name="2. Sensor . Edge Layer.ESP32.Read" data-source-line="38" id="ent0010"><rect fill="#FFFFFF" height="37.6094" rx="2.5" ry="2.5" style="stroke:#374151;stroke-width:0.5;" width="120.3994" x="860" y="163.6094"/><text fill="#1F2937" font-family="sans-serif" font-size="14" lengthAdjust="spacing" textLength="100.3994" x="870" y="188.1426">Sensor Reading</text></g><!--entity Tag--><g class="entity" data-qualified-name="2. Sensor . Edge Layer.ESP32.Tag" data-source-line="39" id="ent0011"><rect fill="#FFFFFF" height="37.6094" rx="2.5" ry="2.5" style="stroke:#374151;stroke-width:0.5;" width="175.9961" x="1112.5" y="163.6094"/><text fill="#1F2937" font-family="sans-serif" font-size="14" lengthAdjust="spacing" textLength="155.9961" x="1122.5" y="188.1426">Timestamp + Machine ID</text></g><!--entity Buffer--><g class="entity" data-qualified-name="2. Sensor . Edge Layer.ESP32.Buffer" data-source-line="40" id="ent0012"><rect fill="#FFFFFF" height="37.6094" rx="2.5" ry="2.5" style="stroke:#374151;stroke-width:0.5;" width="113.3857" x="1443.5" y="163.6094"/><text fill="#1F2937" font-family="sans-serif" font-size="14" lengthAdjust="spacing" textLength="93.3857" x="1453.5" y="188.1426">Optional Buffer</text></g><!--entity Client--><g class="entity" data-qualified-name="2. Sensor . Edge Layer.ESP32.Client" data-source-line="41" id="ent0013"><rect fill="#FFFFFF" height="37.6094" rx="2.5" ry="2.5" style="stroke:#374151;stroke-width:0.5;" width="99.3379" x="1761.5" y="163.6094"/><text fill="#1F2937" font-family="sans-serif" font-size="14" lengthAdjust="spacing" textLength="79.3379" x="1771.5" y="188.1426">MQTT Client</text></g><!--entity Wifi--><g class="entity" data-qualified-name="3. Communication Layer.Wifi" data-source-line="46" id="ent0015"><path d="M2112.0152,207.8806 C2116.0055,201.0846 2121.1614,199.667 2126.0861,206.9465 C2128.6882,200.4871 2134.8116,199.4913 2138.4508,205.9542 C2140.8995,197.9257 2145.759,196.973 2151.6229,202.6788 C2155.6778,195.6218 2160.0157,196.7481 2164.4471,202.2957 C2168.5284,196.9385 2173.9841,197.6693 2176.1748,204.1661 C2180.2116,197.6605 2186.3532,198.8412 2188.8562,205.6293 C2192.3642,200.7684 2197.3864,200.1746 2200.7032,205.8444 C2205.2366,200.3869 2209.9278,200.5851 2213.6881,206.7111 C2221.9372,209.8377 2224.5377,218.5408 2217.0164,224.6013 C2223.1266,230.2127 2221.6799,236.9367 2214.4093,240.3301 C2211.1639,246.8344 2205.9928,246.9291 2201.3945,241.8502 C2197.5554,247.3441 2193.6285,247.9818 2188.7615,243.102 C2186.8786,249.3489 2181.329,250.6412 2176.7669,246.0735 C2174.5172,252.3911 2169.3147,255.1084 2163.932,249.4239 C2157.8889,253.9141 2152.5601,253.7692 2149.8545,245.6868 C2145.522,250.044 2141.1006,249.0448 2138.7963,243.4363 C2133.4237,248.5945 2129.5099,247.8672 2126.2887,241.1672 C2122.6194,246.2627 2116.1813,245.9841 2113.1994,240.3301 C2105.3891,236.1523 2103.4527,229.3803 2111.6483,223.7087 C2104.448,218.0609 2105.3801,213.2078 2112.0152,207.8806" fill="#F1F1F1" style="stroke:#181818;stroke-width:0.5;"/><text fill="#1F2937" font-family="sans-serif" font-size="14" lengthAdjust="spacing" textLength="87.8828" x="2118.5" y="228.1426">Wi-Fi Network</text></g><!--entity Broker--><g class="entity" data-qualified-name="3. Communication Layer.Broker" data-source-line="47" id="ent0016"><polygon fill="#EFF6FF" points="2451.5,236.1094,2461.5,226.1094,2576.2793,226.1094,2576.2793,281.3281,2566.2793,291.3281,2451.5,291.3281,2451.5,236.1094" style="stroke:#2563EB;stroke-width:0.5;stroke-linejoin:miter;stroke-miterlimit:10;"/><line style="stroke:#2563EB;stroke-width:0.5;" x1="2566.2793" x2="2576.2793" y1="236.1094" y2="226.1094"/><line style="stroke:#2563EB;stroke-width:0.5;" x1="2451.5" x2="2566.2793" y1="236.1094" y2="236.1094"/><line style="stroke:#2563EB;stroke-width:0.5;" x1="2566.2793" x2="2566.2793" y1="236.1094" y2="291.3281"/><text fill="#1F2937" font-family="sans-serif" font-size="14" lengthAdjust="spacing" textLength="63.0273" x="2466.5" y="260.6426">Gateway /</text><text fill="#1F2937" font-family="sans-serif" font-size="14" lengthAdjust="spacing" textLength="84.7793" x="2466.5" y="278.252">MQTT Broker</text></g><!--entity Ingest--><g class="entity" data-qualified-name="4. Cloud . Processing Layer.Ingest" data-source-line="51" id="ent0018"><rect fill="#FFFFFF" height="37.6094" rx="2.5" ry="2.5" style="stroke:#374151;stroke-width:0.5;" width="127.3926" x="856.5" y="382.6094"/><text fill="#1F2937" font-family="sans-serif" font-size="14" lengthAdjust="spacing" textLength="107.3926" x="866.5" y="407.1426">Ingestion Service</text></g><!--entity Preprocess--><g class="entity" data-qualified-name="4. Cloud . Processing Layer.Preprocess" data-source-line="52" id="ent0019"><rect fill="#FFFFFF" height="37.6094" rx="2.5" ry="2.5" style="stroke:#374151;stroke-width:0.5;" width="109.4893" x="1146" y="382.6094"/><text fill="#1F2937" font-family="sans-serif" font-size="14" lengthAdjust="spacing" textLength="89.4893" x="1156" y="407.1426">Preprocessing</text></g><!--entity Feature--><g class="entity" data-qualified-name="4. Cloud . Processing Layer.Feature" data-source-line="53" id="ent0020"><rect fill="#FFFFFF" height="55.2188" rx="2.5" ry="2.5" style="stroke:#374151;stroke-width:0.5;" width="139.0479" x="1430.5" y="381.1094"/><text fill="#1F2937" font-family="sans-serif" font-size="14" lengthAdjust="spacing" textLength="114.3857" x="1440.5" y="405.6426">Feature Extraction</text><text fill="#1F2937" font-family="sans-serif" font-size="14" lengthAdjust="spacing" textLength="119.0479" x="1440.5" y="423.252">RMS, mean, peaks</text></g><!--entity Model--><g class="entity" data-qualified-name="4. Cloud . Processing Layer.Model" data-source-line="54" id="ent0021"><rect fill="#FFFFFF" height="55.2188" rx="2.5" ry="2.5" style="stroke:#374151;stroke-width:0.5;" width="123.4824" x="1749.5" y="381.1094"/><text fill="#1F2937" font-family="sans-serif" font-size="14" lengthAdjust="spacing" textLength="96.4893" x="1759.5" y="405.6426">Health Analysis</text><text fill="#1F2937" font-family="sans-serif" font-size="14" lengthAdjust="spacing" textLength="103.4824" x="1759.5" y="423.252">rules / ML model</text></g><!--entity Alert--><g class="entity" data-qualified-name="4. Cloud . Processing Layer.Alert" data-source-line="55" id="ent0022"><rect fill="#FFFFFF" height="37.6094" rx="2.5" ry="2.5" style="stroke:#374151;stroke-width:0.5;" width="99.3584" x="2113" y="381.6094"/><text fill="#1F2937" font-family="sans-serif" font-size="14" lengthAdjust="spacing" textLength="79.3584" x="2123" y="406.1426">Alert Service</text></g><!--entity TelemetryDB--><g class="entity" data-qualified-name="5. Storage . Application Layer.TelemetryDB" data-source-line="59" id="ent0024"><path d="M2449,492.1094 C2449,482.1094 2513.8413,482.1094 2513.8413,482.1094 C2513.8413,482.1094 2578.6826,482.1094 2578.6826,492.1094 L2578.6826,518.7188 C2578.6826,528.7188 2513.8413,528.7188 2513.8413,528.7188 C2513.8413,528.7188 2449,528.7188 2449,518.7188 L2449,492.1094" fill="#ECFDF5" style="stroke:#059669;stroke-width:0.5;"/><path d="M2449,492.1094 C2449,502.1094 2513.8413,502.1094 2513.8413,502.1094 C2513.8413,502.1094 2578.6826,502.1094 2578.6826,492.1094" fill="none" style="stroke:#059669;stroke-width:0.5;"/><text fill="#1F2937" font-family="sans-serif" font-size="14" lengthAdjust="spacing" textLength="109.6826" x="2459" y="520.6426">Telemetry History</text></g><!--entity AlertDB--><g class="entity" data-qualified-name="5. Storage . Application Layer.AlertDB" data-source-line="60" id="ent0025"><path d="M2441.5,392.6094 C2441.5,382.6094 2513.9531,382.6094 2513.9531,382.6094 C2513.9531,382.6094 2586.4063,382.6094 2586.4063,392.6094 L2586.4063,436.8281 C2586.4063,446.8281 2513.9531,446.8281 2513.9531,446.8281 C2513.9531,446.8281 2441.5,446.8281 2441.5,436.8281 L2441.5,392.6094" fill="#ECFDF5" style="stroke:#059669;stroke-width:0.5;"/><path d="M2441.5,392.6094 C2441.5,402.6094 2513.9531,402.6094 2513.9531,402.6094 C2513.9531,402.6094 2586.4063,402.6094 2586.4063,392.6094" fill="none" style="stroke:#059669;stroke-width:0.5;"/><text fill="#1F2937" font-family="sans-serif" font-size="14" lengthAdjust="spacing" textLength="124.9063" x="2451.5" y="421.1426">Alert + Maintenance</text><text fill="#1F2937" font-family="sans-serif" font-size="14" lengthAdjust="spacing" textLength="52.1309" x="2451.5" y="438.752">Records</text></g><!--entity UI--><g class="entity" data-qualified-name="5. Storage . Application Layer.UI" data-source-line="61" id="ent0026"><rect fill="#FFFFFF" height="37.6094" rx="2.5" ry="2.5" style="stroke:#374151;stroke-width:0.5;" width="142.1787" x="2726.5" y="433.6094"/><text fill="#1F2937" font-family="sans-serif" font-size="14" lengthAdjust="spacing" textLength="122.1787" x="2736.5" y="458.1426">Dashboard / Report</text></g><g class="entity" data-qualified-name="Purpose" data-source-line="22" id="ent0001"><path d="M6,423.1094 L6,498.5156 L410.7031,498.5156 L410.7031,433.1094 L400.7031,423.1094 L6,423.1094" fill="#FEF3C7" style="stroke:#D97706;stroke-width:0.5;"/><path d="M400.7031,423.1094 L400.7031,433.1094 L410.7031,433.1094 L400.7031,423.1094" fill="#FEF3C7" style="stroke:#D97706;stroke-width:1;"/><text fill="#1F2937" font-family="sans-serif" font-size="13" lengthAdjust="spacing" textLength="52.0317" x="12" y="441.6045">Purpose:</text><text fill="#1F2937" font-family="sans-serif" font-size="13" lengthAdjust="spacing" textLength="350.4351" x="12" y="457.9561">Presents the full layered architecture from physical machines</text><text fill="#1F2937" font-family="sans-serif" font-size="13" lengthAdjust="spacing" textLength="383.7031" x="12" y="474.3076">to sensors, ESP32 edge nodes, MQTT gateway, cloud processing,</text><text fill="#1F2937" font-family="sans-serif" font-size="13" lengthAdjust="spacing" textLength="245.7178" x="12" y="490.6592">storage, alerting, and dashboard/reporting.</text></g><!--link MachineA to Temp--><g class="link" data-entity-1="ent0003" data-entity-2="ent0007" data-link-type="dependency" data-source-line="64" id="lnk27"><path d="M261.82,185.7894 C338.33,168.5094 474.8528,137.6709 549.5028,120.8109" fill="none" id="MachineA-to-Temp" style="stroke:#374151;stroke-width:1;"/><polygon fill="#374151" points="554.38,119.7094,544.7199,117.7904,549.5028,120.8109,546.4823,125.5938,554.38,119.7094" style="stroke:#374151;stroke-width:1;stroke-linejoin:miter;stroke-miterlimit:10;"/><text fill="#1F2937" font-family="sans-serif" font-size="13" lengthAdjust="spacing" textLength="25.3018" x="454" y="132.1045">heat</text></g><!--link MachineA to Vib--><g class="link" data-entity-1="ent0003" data-entity-2="ent0008" data-link-type="dependency" data-source-line="65" id="lnk28"><path d="M261.82,197.7394 C342.83,197.9494 491.59,198.3266 561.83,198.5066" fill="none" id="MachineA-to-Vib" style="stroke:#374151;stroke-width:1;"/><polygon fill="#374151" points="566.83,198.5194,557.8403,194.4963,561.83,198.5066,557.8198,202.4963,566.83,198.5194" style="stroke:#374151;stroke-width:1;stroke-linejoin:miter;stroke-miterlimit:10;"/><text fill="#1F2937" font-family="sans-serif" font-size="13" lengthAdjust="spacing" textLength="49.1372" x="442" y="195.1045">vibration</text></g><!--link MachineB to ESP32--><g class="link" data-entity-1="ent0004" data-entity-2="ent0009" data-link-type="dependency" data-source-line="66" id="lnk29"><path d="M261.6,285.2594 C349.55,292.2394 532.94,303.0594 687,287.6094 C738.525,282.4444 795.5325,270.9769 840.1438,260.6631 C851.2966,258.0847 861.6746,255.5784 870.9985,253.2606 C875.6605,252.1018 880.0589,250.9901 884.1589,249.9401 C885.1839,249.6776 886.1903,249.419 887.1774,249.1644 C887.671,249.0371 883.3191,250.1633 883.8031,250.0381" fill="none" id="MachineB-to-ESP32" style="stroke:#374151;stroke-width:1;stroke-dasharray:7,7;"/><polygon fill="#374151" points="888.6436,248.7857,878.9286,247.1676,883.8031,250.0381,880.9326,254.9126,888.6436,248.7857" style="stroke:#374151;stroke-width:1;stroke-linejoin:miter;stroke-miterlimit:10;"/><text fill="#1F2937" font-family="sans-serif" font-size="13" lengthAdjust="spacing" textLength="163.3379" x="523" y="284.1045">same repeated node pattern</text></g><!--link MachineC to ESP32--><g class="link" data-entity-1="ent0005" data-entity-2="ent0009" data-link-type="dependency" data-source-line="67" id="lnk30"><path d="M262.02,365.0994 C368.88,366.4894 617.89,361.3094 812,292.6094 C836.145,284.0644 862.0025,271.5969 882.2488,261.0119 C887.3103,258.3656 892.0212,255.837 896.2669,253.5168 C898.3898,252.3567 900.3963,251.2487 902.2723,250.2041 C903.2103,249.6818 899.7562,251.6239 900.6272,251.1347" fill="none" id="MachineC-to-ESP32" style="stroke:#374151;stroke-width:1;stroke-dasharray:7,7;"/><polygon fill="#374151" points="904.9866,248.6861,895.1808,249.606,900.6272,251.1347,899.0985,256.5811,904.9866,248.6861" style="stroke:#374151;stroke-width:1;stroke-linejoin:miter;stroke-miterlimit:10;"/><text fill="#1F2937" font-family="sans-serif" font-size="13" lengthAdjust="spacing" textLength="163.3379" x="523" y="326.1045">same repeated node pattern</text></g><!--link Temp to Read--><g class="link" data-entity-1="ent0007" data-entity-2="ent0010" data-link-type="dependency" data-source-line="68" id="lnk31"><path d="M654.83,120.2494 C710.35,133.3594 795.6539,153.4902 854.9339,167.4902" fill="none" id="Temp-to-Read" style="stroke:#374151;stroke-width:1;"/><polygon fill="#374151" points="859.8,168.6394,851.9603,162.6779,854.9339,167.4902,850.1216,170.4637,859.8,168.6394" style="stroke:#374151;stroke-width:1;stroke-linejoin:miter;stroke-miterlimit:10;"/><text fill="#1F2937" font-family="sans-serif" font-size="13" lengthAdjust="spacing" textLength="93.2153" x="718" y="134.1045">local wired input</text></g><!--link Vib to Read--><g class="link" data-entity-1="ent0008" data-entity-2="ent0010" data-link-type="dependency" data-source-line="69" id="lnk32"><path d="M642.08,196.7394 C695.62,194.0094 790.9265,189.1443 854.9865,185.8743" fill="none" id="Vib-to-Read" style="stroke:#374151;stroke-width:1;"/><polygon fill="#374151" points="859.98,185.6194,850.7878,182.0834,854.9865,185.8743,851.1956,190.073,859.98,185.6194" style="stroke:#374151;stroke-width:1;stroke-linejoin:miter;stroke-miterlimit:10;"/><text fill="#1F2937" font-family="sans-serif" font-size="13" lengthAdjust="spacing" textLength="93.2153" x="718" y="185.1045">local wired input</text></g><!--link Read to Tag--><g class="link" data-entity-1="ent0010" data-entity-2="ent0011" data-link-type="dependency" data-source-line="70" id="lnk33"><path d="M980.06,182.6094 C1018.54,182.6094 1064.42,182.6094 1107.49,182.6094" fill="none" id="Read-to-Tag" style="stroke:#374151;stroke-width:1;"/><polygon fill="#374151" points="1112.49,182.6094,1103.49,178.6094,1107.49,182.6094,1103.49,186.6094,1112.49,182.6094" style="stroke:#374151;stroke-width:1;stroke-linejoin:miter;stroke-miterlimit:10;"/><text fill="#1F2937" font-family="sans-serif" font-size="13" lengthAdjust="spacing" textLength="67.9263" x="1014.5" y="179.1045">raw reading</text></g><!--link Tag to Buffer--><g class="link" data-entity-1="ent0011" data-entity-2="ent0012" data-link-type="dependency" data-source-line="71" id="lnk34"><path d="M1288.75,182.6094 C1338.64,182.6094 1394.74,182.6094 1438.19,182.6094" fill="none" id="Tag-to-Buffer" style="stroke:#374151;stroke-width:1;"/><polygon fill="#374151" points="1443.19,182.6094,1434.19,178.6094,1438.19,182.6094,1434.19,186.6094,1443.19,182.6094" style="stroke:#374151;stroke-width:1;stroke-linejoin:miter;stroke-miterlimit:10;"/><text fill="#1F2937" font-family="sans-serif" font-size="13" lengthAdjust="spacing" textLength="80.2217" x="1319.5" y="179.1045">tagged record</text></g><!--link Buffer to Client--><g class="link" data-entity-1="ent0012" data-entity-2="ent0013" data-link-type="dependency" data-source-line="72" id="lnk35"><path d="M1556.6,182.6094 C1614.98,182.6094 1700.87,182.6094 1756.45,182.6094" fill="none" id="Buffer-to-Client" style="stroke:#374151;stroke-width:1;"/><polygon fill="#374151" points="1761.45,182.6094,1752.45,178.6094,1756.45,182.6094,1752.45,186.6094,1761.45,182.6094" style="stroke:#374151;stroke-width:1;stroke-linejoin:miter;stroke-miterlimit:10;"/><text fill="#1F2937" font-family="sans-serif" font-size="13" lengthAdjust="spacing" textLength="80.958" x="1619.5" y="179.1045">publish queue</text></g><!--link Client to Wifi--><g class="link" data-entity-1="ent0013" data-entity-2="ent0015" data-link-type="dependency" data-source-line="73" id="lnk36"><path d="M1860.6,188.1694 C1924.18,195.4494 2030.5124,207.6213 2098.4624,215.3913" fill="none" id="Client-to-Wifi" style="stroke:#374151;stroke-width:1;"/><polygon fill="#374151" points="2103.43,215.9594,2094.9427,210.9628,2098.4624,215.3913,2094.0338,218.911,2103.43,215.9594" style="stroke:#374151;stroke-width:1;stroke-linejoin:miter;stroke-miterlimit:10;"/><text fill="#1F2937" font-family="sans-serif" font-size="13" lengthAdjust="spacing" textLength="99.6519" x="1952.5" y="194.1045">MQTT over Wi-Fi</text></g><!--link Wifi to Client--><g class="link" data-entity-1="ent0015" data-entity-2="ent0013" data-link-type="dependency" data-source-line="85" id="lnk48"><path d="M2103.42,235.7194 C2056.72,244.0994 1989.7,251.2494 1932.5,238.6094 C1900.51,231.5394 1871.2981,217.5303 1847.7381,204.2803" fill="none" id="Wifi-to-Client" style="stroke:#374151;stroke-width:1;"/><polygon fill="#374151" points="1843.38,201.8294,1849.2638,209.7276,1847.7381,204.2803,1853.1853,202.7546,1843.38,201.8294" style="stroke:#374151;stroke-width:1;stroke-linejoin:miter;stroke-miterlimit:10;"/><text fill="#1F2937" font-family="sans-serif" font-size="13" lengthAdjust="spacing" textLength="91.7681" x="1956.5" y="235.1045">subscribed alert</text></g><!--link Wifi to Broker--><g class="link" data-entity-1="ent0015" data-entity-2="ent0016" data-link-type="dependency" data-source-line="74" id="lnk37"><path d="M2209.84,246.7894 C2222.95,252.4694 2237.48,257.7094 2251.5,260.6094 C2318.75,274.5094 2392.8315,271.7523 2446.2815,266.7823" fill="none" id="Wifi-to-Broker" style="stroke:#374151;stroke-width:1;"/><polygon fill="#374151" points="2451.26,266.3194,2441.9283,263.1698,2446.2815,266.7823,2442.669,271.1355,2451.26,266.3194" style="stroke:#374151;stroke-width:1;stroke-linejoin:miter;stroke-miterlimit:10;"/><text fill="#1F2937" font-family="sans-serif" font-size="13" lengthAdjust="spacing" textLength="84.5317" x="2288.5" y="257.1045">telemetry topic</text></g><!--link Broker to Wifi--><g class="link" data-entity-1="ent0016" data-entity-2="ent0015" data-link-type="dependency" data-source-line="84" id="lnk47"><path d="M2451.36,245.3794 C2437.63,242.7994 2423.11,240.3594 2409.5,238.6094 C2345.61,230.3894 2276.8161,226.5063 2226.8461,224.5363" fill="none" id="Broker-to-Wifi" style="stroke:#374151;stroke-width:1;"/><polygon fill="#374151" points="2221.85,224.3394,2230.6854,228.6908,2226.8461,224.5363,2231.0006,220.697,2221.85,224.3394" style="stroke:#374151;stroke-width:1;stroke-linejoin:miter;stroke-miterlimit:10;"/><text fill="#1F2937" font-family="sans-serif" font-size="13" lengthAdjust="spacing" textLength="99.709" x="2281" y="223.1045">downstream alert</text></g><!--link Broker to Ingest--><g class="link" data-entity-1="ent0016" data-entity-2="ent0018" data-link-type="dependency" data-source-line="75" id="lnk38"><path d="M2451.31,274.8694 C2381.86,291.7194 2265.4,315.6094 2163.5,315.6094 C1199.5,315.6094 1199.5,315.6094 1199.5,315.6094 C1109.43,315.6094 1014.4692,355.0082 962.2192,380.3382" fill="none" id="Broker-to-Ingest" style="stroke:#374151;stroke-width:1;"/><polygon fill="#374151" points="957.72,382.5194,967.5634,382.1927,962.2192,380.3382,964.0736,374.994,957.72,382.5194" style="stroke:#374151;stroke-width:1;stroke-linejoin:miter;stroke-miterlimit:10;"/><text fill="#1F2937" font-family="sans-serif" font-size="13" lengthAdjust="spacing" textLength="106.209" x="1606.5" y="312.1045">subscribed stream</text></g><!--link Ingest to TelemetryDB--><g class="link" data-entity-1="ent0018" data-entity-2="ent0024" data-link-type="dependency" data-source-line="76" id="lnk39"><path d="M938.85,420.7894 C980.26,463.0794 1087.87,560.6094 1199.5,560.6094 C1199.5,560.6094 1199.5,560.6094 2163.5,560.6094 C2264.08,560.6094 2374.1199,539.2419 2443.8699,523.0219" fill="none" id="Ingest-to-TelemetryDB" style="stroke:#374151;stroke-width:1;"/><polygon fill="#374151" points="2448.74,521.8894,2439.0679,520.0318,2443.8699,523.0219,2440.8799,527.8239,2448.74,521.8894" style="stroke:#374151;stroke-width:1;stroke-linejoin:miter;stroke-miterlimit:10;"/><text fill="#1F2937" font-family="sans-serif" font-size="13" lengthAdjust="spacing" textLength="118.5044" x="1600.5" y="557.1045">raw / tagged records</text></g><!--link Ingest to Preprocess--><g class="link" data-entity-1="ent0018" data-entity-2="ent0019" data-link-type="dependency" data-source-line="77" id="lnk40"><path d="M983.5,401.6094 C1032.25,401.6094 1094.26,401.6094 1140.66,401.6094" fill="none" id="Ingest-to-Preprocess" style="stroke:#374151;stroke-width:1;"/><polygon fill="#374151" points="1145.66,401.6094,1136.66,397.6094,1140.66,401.6094,1136.66,405.6094,1145.66,401.6094" style="stroke:#374151;stroke-width:1;stroke-linejoin:miter;stroke-miterlimit:10;"/><text fill="#1F2937" font-family="sans-serif" font-size="13" lengthAdjust="spacing" textLength="59.9917" x="1018.5" y="398.1045">clean data</text></g><!--link Preprocess to Feature--><g class="link" data-entity-1="ent0019" data-entity-2="ent0020" data-link-type="dependency" data-source-line="78" id="lnk41"><path d="M1255.03,402.8694 C1304.13,404.0194 1372.1114,405.6213 1425.4514,406.8813" fill="none" id="Preprocess-to-Feature" style="stroke:#374151;stroke-width:1;"/><polygon fill="#374151" points="1430.45,406.9994,1421.547,402.788,1425.4514,406.8813,1421.358,410.7857,1430.45,406.9994" style="stroke:#374151;stroke-width:1;stroke-linejoin:miter;stroke-miterlimit:10;"/><text fill="#1F2937" font-family="sans-serif" font-size="13" lengthAdjust="spacing" textLength="46.9727" x="1336.5" y="401.1045">features</text></g><!--link Feature to Model--><g class="link" data-entity-1="ent0020" data-entity-2="ent0021" data-link-type="dependency" data-source-line="79" id="lnk42"><path d="M1569.58,408.6094 C1623.45,408.6094 1692.76,408.6094 1744.45,408.6094" fill="none" id="Feature-to-Model" style="stroke:#374151;stroke-width:1;"/><polygon fill="#374151" points="1749.45,408.6094,1740.45,404.6094,1744.45,408.6094,1740.45,412.6094,1749.45,408.6094" style="stroke:#374151;stroke-width:1;stroke-linejoin:miter;stroke-miterlimit:10;"/><text fill="#1F2937" font-family="sans-serif" font-size="13" lengthAdjust="spacing" textLength="79.4854" x="1620" y="405.1045">feature vector</text></g><!--link Model to Alert--><g class="link" data-entity-1="ent0021" data-entity-2="ent0022" data-link-type="dependency" data-source-line="80" id="lnk43"><path d="M1872.88,407.2194 C1941.04,405.6594 2045.1313,403.2741 2107.8513,401.8341" fill="none" id="Model-to-Alert" style="stroke:#374151;stroke-width:1;"/><polygon fill="#374151" points="2112.85,401.7194,2103.7606,397.927,2107.8513,401.8341,2103.9442,405.9249,2112.85,401.7194" style="stroke:#374151;stroke-width:1;stroke-linejoin:miter;stroke-miterlimit:10;"/><text fill="#1F2937" font-family="sans-serif" font-size="13" lengthAdjust="spacing" textLength="137.6489" x="1933.5" y="400.1045">health state + risk score</text></g><!--link Model to TelemetryDB--><g class="link" data-entity-1="ent0021" data-entity-2="ent0024" data-link-type="dependency" data-source-line="81" id="lnk44"><path d="M1872.68,419.9894 C1926.8,429.9194 2008.26,444.2994 2079.5,454.6094 C2210.37,473.5494 2359.2767,489.8433 2443.9867,498.6333" fill="none" id="Model-to-TelemetryDB" style="stroke:#374151;stroke-width:1;"/><polygon fill="#374151" points="2448.96,499.1494,2440.4209,494.2418,2443.9867,498.6333,2439.5952,502.1991,2448.96,499.1494" style="stroke:#374151;stroke-width:1;stroke-linejoin:miter;stroke-miterlimit:10;"/><text fill="#1F2937" font-family="sans-serif" font-size="13" lengthAdjust="spacing" textLength="101.8799" x="2112" y="451.1045">processed results</text></g><!--link Alert to AlertDB--><g class="link" data-entity-1="ent0022" data-entity-2="ent0025" data-link-type="dependency" data-source-line="82" id="lnk45"><path d="M2212.13,411.7194 C2224.87,414.1594 2238.64,416.3794 2251.5,417.6094 C2315.45,423.7294 2383.6062,422.4179 2436.2462,419.7979" fill="none" id="Alert-to-AlertDB" style="stroke:#374151;stroke-width:1;"/><polygon fill="#374151" points="2441.24,419.5494,2432.0523,416.0017,2436.2462,419.7979,2432.45,423.9918,2441.24,419.5494" style="stroke:#374151;stroke-width:1;stroke-linejoin:miter;stroke-miterlimit:10;"/><text fill="#1F2937" font-family="sans-serif" font-size="13" lengthAdjust="spacing" textLength="60.7026" x="2300.5" y="414.1045">alert event</text></g><!--link Alert to Broker--><g class="link" data-entity-1="ent0022" data-entity-2="ent0016" data-link-type="dependency" data-source-line="83" id="lnk46"><path d="M2212.18,395.9794 C2273.75,389.5394 2375.8,376.6894 2409.5,359.6094 C2441.3,343.4894 2466.4832,318.0322 2485.4332,295.1222" fill="none" id="Alert-to-Broker" style="stroke:#374151;stroke-width:1;"/><polygon fill="#374151" points="2488.62,291.2694,2479.8014,295.6549,2485.4332,295.1222,2485.9659,300.7539,2488.62,291.2694" style="stroke:#374151;stroke-width:1;stroke-linejoin:miter;stroke-miterlimit:10;"/><text fill="#1F2937" font-family="sans-serif" font-size="13" lengthAdjust="spacing" textLength="156.7871" x="2252.5" y="356.1045">machine-specific alert topic</text></g><!--link TelemetryDB to UI--><g class="link" data-entity-1="ent0024" data-entity-2="ent0026" data-link-type="dependency" data-source-line="86" id="lnk49"><path d="M2579.23,493.5194 C2623.12,485.2494 2676.3663,475.2244 2721.4663,466.7344" fill="none" id="TelemetryDB-to-UI" style="stroke:#374151;stroke-width:1;"/><polygon fill="#374151" points="2726.38,465.8094,2716.7954,463.5434,2721.4663,466.7344,2718.2753,471.4053,2726.38,465.8094" style="stroke:#374151;stroke-width:1;stroke-linejoin:miter;stroke-miterlimit:10;"/><text fill="#1F2937" font-family="sans-serif" font-size="13" lengthAdjust="spacing" textLength="78.3999" x="2617.5" y="470.1045">trends + KPIs</text></g><!--link AlertDB to UI--><g class="link" data-entity-1="ent0025" data-entity-2="ent0026" data-link-type="dependency" data-source-line="87" id="lnk50"><path d="M2586.76,424.2994 C2629.6,430.0794 2678.815,436.7199 2721.375,442.4699" fill="none" id="AlertDB-to-UI" style="stroke:#374151;stroke-width:1;"/><polygon fill="#374151" points="2726.33,443.1394,2717.9466,437.9704,2721.375,442.4699,2716.8755,445.8984,2726.33,443.1394" style="stroke:#374151;stroke-width:1;stroke-linejoin:miter;stroke-miterlimit:10;"/><text fill="#1F2937" font-family="sans-serif" font-size="13" lengthAdjust="spacing" textLength="67.1899" x="2623" y="426.1045">alert history</text></g><g class="legend" data-source-line="89"><rect fill="none" height="137.2656" rx="7.5" ry="7.5" style="stroke:#000000;stroke-width:1;" width="588.5322" x="1151.9839" y="581.9609"/><text fill="#1F2937" font-family="sans-serif" font-size="14" font-weight="700" lengthAdjust="spacing" textLength="99.5928" x="1160.8735" y="603.4941">Layer / Symbol</text><text fill="#1F2937" font-family="sans-serif" font-size="14" font-weight="700" lengthAdjust="spacing" textLength="56.7793" x="1341.0415" y="603.4941">Meaning</text><text fill="#1F2937" font-family="sans-serif" font-size="14" lengthAdjust="spacing" textLength="91.8271" x="1160.8735" y="621.1035">Machine Layer</text><text fill="#1F2937" font-family="sans-serif" font-size="14" lengthAdjust="spacing" textLength="390.585" x="1341.0415" y="621.1035">Physical assets: motors, pumps, fans, compressors, conveyors</text><text fill="#1F2937" font-family="sans-serif" font-size="14" lengthAdjust="spacing" textLength="131.9199" x="1160.8735" y="638.7129">Sensor + Edge Layer</text><text fill="#1F2937" font-family="sans-serif" font-size="14" lengthAdjust="spacing" textLength="353.3154" x="1341.0415" y="638.7129">Local ESP32 node reads wired sensors and tags records</text><text fill="#1F2937" font-family="sans-serif" font-size="14" lengthAdjust="spacing" textLength="136.1719" x="1160.8735" y="656.3223">Communication Layer</text><text fill="#1F2937" font-family="sans-serif" font-size="14" lengthAdjust="spacing" textLength="313.5098" x="1341.0415" y="656.3223">MQTT over Wi-Fi carries telemetry and alert topics</text><text fill="#1F2937" font-family="sans-serif" font-size="14" lengthAdjust="spacing" textLength="156.4131" x="1160.8735" y="673.9316">Cloud / Processing Layer</text><text fill="#1F2937" font-family="sans-serif" font-size="14" lengthAdjust="spacing" textLength="376.6328" x="1341.0415" y="673.9316">Cleans data, extracts features, predicts health, creates alerts</text><text fill="#1F2937" font-family="sans-serif" font-size="14" lengthAdjust="spacing" textLength="172.3887" x="1160.8735" y="691.541">Storage + Application Layer</text><text fill="#1F2937" font-family="sans-serif" font-size="14" lengthAdjust="spacing" textLength="330.75" x="1341.0415" y="691.541">Stores history and presents dashboard/report outputs</text><text fill="#1F2937" font-family="sans-serif" font-size="14" lengthAdjust="spacing" textLength="94.1514" x="1160.8735" y="709.1504">Dashed arrows</text><text fill="#1F2937" font-family="sans-serif" font-size="14" lengthAdjust="spacing" textLength="256.0537" x="1341.0415" y="709.1504">Repeated pattern for additional machines</text><line style="stroke:#1F2937;stroke-width:1;" x1="1156.9839" x2="1735.5161" y1="588.9609" y2="588.9609"/><line style="stroke:#1F2937;stroke-width:1;" x1="1156.9839" x2="1735.5161" y1="606.5703" y2="606.5703"/><line style="stroke:#1F2937;stroke-width:1;" x1="1156.9839" x2="1735.5161" y1="624.1797" y2="624.1797"/><line style="stroke:#1F2937;stroke-width:1;" x1="1156.9839" x2="1735.5161" y1="641.7891" y2="641.7891"/><line style="stroke:#1F2937;stroke-width:1;" x1="1156.9839" x2="1735.5161" y1="659.3984" y2="659.3984"/><line style="stroke:#1F2937;stroke-width:1;" x1="1156.9839" x2="1735.5161" y1="677.0078" y2="677.0078"/><line style="stroke:#1F2937;stroke-width:1;" x1="1156.9839" x2="1735.5161" y1="694.6172" y2="694.6172"/><line style="stroke:#1F2937;stroke-width:1;" x1="1156.9839" x2="1735.5161" y1="712.2266" y2="712.2266"/><line style="stroke:#1F2937;stroke-width:1;" x1="1156.9839" x2="1156.9839" y1="588.9609" y2="712.2266"/><line style="stroke:#1F2937;stroke-width:1;" x1="1337.1519" x2="1337.1519" y1="588.9609" y2="712.2266"/><line style="stroke:#1F2937;stroke-width:1;" x1="1735.5161" x2="1735.5161" y1="588.9609" y2="712.2266"/></g><?plantuml-src ZLPDSzis4BtpL-oenyXoRCNss3FDZBxOU6gdRkGq5ryWSaLXH18i0ChHrFdltGL0YPJbj3xOzEx3Oh7xtW9MsXnXlZKM2nZfP2Kj9hRM25CfCYqAE85PcY5O1PDSrIayQ4nbOkK6uLx8qc8foWIZoAnbMGbUiH39EjEgBjE9ofM6NsBtqqAObKZLiompM8hSOCkJgA9I9PPsRhUKcAPaH9dbRKYAIr7dDbQb3V7FulFhuLKBKb468iEnqYdg01fUVJYxE3i2UfNjTJoAnyTo-dcyFUm_pr-gj9lS-SNbS3O-H1p6cSNnPITEAgnO2DEDzVxY-lBo-XZgLRn9F8qlEhlQ8_MOnSF9rI6glUFq-khg_MKB8RHMpzqwHJakBRD8osnb8PNSMgdAAE9m80myrBfIH0PelcxuKwEXaXgmAuHbdUUGYoqI1McF5bcNMb53LriZ4v538SXLeg7rj26jDqgRFipc3yDpG6OpbvSizty-Fa8cB3wBRHyIn-zAgmID8NBsQRsnIXD9-Y1or9QD8CgKIcfM2oLqUggnKiunY90SV9We2jI2tjc0HEAIWJlEkmV_K53U7NgDOzJZquV_Hg_SuxPx_CezQRidqO_MvkS3cBkpmpkluLOAEx92xn6B2hNWEZwLVe6BoVOkyY-v81mrhOCZwouhN-AmwsSoFPKKksc8Wti8vz297TPyGP5ICHsIlmzXZx90OqLHqPcQ4jnEVRuYEqJ_KN6sn8XnlLoYJzT_7Y8T4oQvf7ySodyIwaUdfCC1J5HHr2NnZ4DtIkheq_icJs89dz4-AxrsiRx9fTnLw3VFDZXzAjsUOwtMJMRkixFVXq6OkgUaX8QNR_JnjioeD9pK7FL69hxStjf5agZsB7UelQMBZD7n0cRVhHQ9R_sN-taV2XHb7oeKQ-C2161tzISKkLt1Y3f0oZHFfQvpD7IM-pieg1gvvov_THUEM6oTOpXBfpGNn6ulJgB2gAho8orf9X-JFCS2hTx29ycQtWQA1-jqt47x_T-rBpWwDoOqzCm-7RUebVMq6GfqmYzkB3ZirrlEkz4td9nyTDA26rXHqReEqXBPDutE6kSO1eEFGJatO4J1DoCLtsBgQLK9Qr7ly9F_YtU9yCQiDOBcYkVdi-G1IyEyjX5dz5E0SxX3YOm0MZpJNax44LlOuoL7JYkoZ1PgLyaec1dXvKQ8gbxaqgpWxnfhZ8AP4ImYyZlDg0qjSpgBdDdjuSJ3U-mwRLKbaoWu6EErm1Mf5oRHSa6v64lP5b5m-URiI17ESzfDtBJHU-KGECb95ev7KSlEi4P8Dx3qNoPgJEns6jWxOKFtcjAHDpF0Cz9HXYL58z0oxxKqQp2K5BQmtGE4B5psXjvD9lAnTb4TobrlW1iUUdl_hgXXW9-O2XEgU1BmhoeSkaIFkz8NrWFtRTerkjK23sbdpSYljznCJPUgeOF-_d0R4c-xVHOhhsX-OcHy1o-KjQg8Ndxreu3QDzyM2vK3MUwfGJn2NwANxiqCB_3Gl1y4bSiQEhMoxk5GrKL5VvQYfDyiUAgaVr8agjpWbZvTm2EtBOMzSvBnOdJYOtcOeA7mE76F2YAPQIZcuXsvQYZUWGGWeTUMfB6w9pu7QpKe17lZ7W5sKLMCusqVq8zwioCgdTy_-KrW7nrRyomnVfDmzhTdCNWluKEdN89Lyx8xV4k1gYqD5X-MPwfxxD63aYmyL_qO2nCCbbHmaQOoNFJDquyM4nKy8Vu5?></g></svg>